<?xml version="1.0" encoding="utf-8"?>
<!-- Generator: Adobe Illustrator 26.0.2, SVG Export Plug-In . SVG Version: 6.00 Build 0)  -->
<svg version="1.1" id="Layer_1" xmlns="http://www.w3.org/2000/svg" xmlns:xlink="http://www.w3.org/1999/xlink" x="0px" y="0px"
	 viewBox="0 0 420 420" style="enable-background:new 0 0 420 420;" xml:space="preserve">
<style type="text/css">
	.st0{display:none;}
	.st1{display:inline;}
	.st2{clip-path:url(#SVGID_00000058567146930302283620000012732346041432945041_);fill:#38BDF8;}
	.st3{clip-path:url(#SVGID_00000098921479452683052760000003031727325340803503_);fill:#3ADD71;}
	.st4{clip-path:url(#SVGID_00000142136535958018203070000017013878808496294298_);fill:#F87171;}
	.st5{clip-path:url(#SVGID_00000043439987096017438060000014678712667044440979_);fill:#BA7DF9;}
	.st6{clip-path:url(#SVGID_00000014605675822332673950000008159174514985053352_);fill:#FBBF24;}
	.st7{clip-path:url(#SVGID_00000114063939142642443920000005712516072467422891_);}
	.st8{fill:#BA7DF9;}
	.st9{fill:#38BDF8;}
	.st10{fill:#3ADD71;}
	.st11{fill:#FBBF24;}
	.st12{display:none;fill:none;}
	.st13{display:none;fill:#FFFFFF;}
	.st14{opacity:0.4;clip-path:url(#SVGID_00000176023341390276754350000000541100226269670840_);fill:#FFFFFF;}
	.st15{display:none;fill:none;stroke:#000000;stroke-width:2;stroke-miterlimit:10;}
	.st16{fill:none;stroke:#78716C;stroke-width:8;stroke-miterlimit:10;}
	.st17{fill:#78716C;}
	.st18{fill:#78716C;stroke:#FFFFFF;stroke-width:8;stroke-miterlimit:10;}
</style>
<g class="st0">
	<g class="st1">
		<defs>
			<rect id="SVGID_1_" x="-46" y="-46" width="512" height="512"/>
		</defs>
		<clipPath id="SVGID_00000094615801560936683590000011966374215814919073_">
			<use xlink:href="#SVGID_1_"  style="overflow:visible;"/>
		</clipPath>
		<path style="clip-path:url(#SVGID_00000094615801560936683590000011966374215814919073_);fill:#38BDF8;" d="M285,260H135
			c-13.8,0-25-11.2-25-25v-50c0-13.8,11.2-25,25-25h150c13.8,0,25,11.2,25,25v50C310,248.8,298.8,260,285,260z"/>
	</g>
	<g class="st1">
		<defs>
			<rect id="SVGID_00000115513046570079754120000009662738541775686051_" x="-46" y="-46" width="512" height="512"/>
		</defs>
		<clipPath id="SVGID_00000073706625797405009200000007995559456901024409_">
			<use xlink:href="#SVGID_00000115513046570079754120000009662738541775686051_"  style="overflow:visible;"/>
		</clipPath>
		<path style="clip-path:url(#SVGID_00000073706625797405009200000007995559456901024409_);fill:#3ADD71;" d="M285,140H135
			c-13.8,0-25-11.2-25-25V65c0-13.8,11.2-25,25-25h150c13.8,0,25,11.2,25,25v50C310,128.8,298.8,140,285,140z"/>
	</g>
	<g class="st1">
		<defs>
			<rect id="SVGID_00000164495144940772814380000002975984920836962186_" x="-46" y="-46" width="512" height="512"/>
		</defs>
		<clipPath id="SVGID_00000016770576784226621000000018416721370802527935_">
			<use xlink:href="#SVGID_00000164495144940772814380000002975984920836962186_"  style="overflow:visible;"/>
		</clipPath>
		<path style="clip-path:url(#SVGID_00000016770576784226621000000018416721370802527935_);fill:#F87171;" d="M285,500H135
			c-13.8,0-25-11.2-25-25v-50c0-13.8,11.2-25,25-25h150c13.8,0,25,11.2,25,25v50C310,488.8,298.8,500,285,500z"/>
	</g>
	<g class="st1">
		<defs>
			<rect id="SVGID_00000085947578057938090240000007216268646073554085_" x="-46" y="-46" width="512" height="512"/>
		</defs>
		<clipPath id="SVGID_00000132781835619039930680000008359063224422182038_">
			<use xlink:href="#SVGID_00000085947578057938090240000007216268646073554085_"  style="overflow:visible;"/>
		</clipPath>
		<path style="clip-path:url(#SVGID_00000132781835619039930680000008359063224422182038_);fill:#BA7DF9;" d="M285,380H135
			c-13.8,0-25-11.2-25-25v-50c0-13.8,11.2-25,25-25h150c13.8,0,25,11.2,25,25v50C310,368.8,298.8,380,285,380z"/>
	</g>
	<g class="st1">
		<defs>
			<rect id="SVGID_00000178169228396725977870000002310295004550341297_" x="-46" y="-46" width="512" height="512"/>
		</defs>
		<clipPath id="SVGID_00000069369549090363342000000014115762649308512440_">
			<use xlink:href="#SVGID_00000178169228396725977870000002310295004550341297_"  style="overflow:visible;"/>
		</clipPath>
		<path style="clip-path:url(#SVGID_00000069369549090363342000000014115762649308512440_);fill:#FBBF24;" d="M285,20H135
			c-13.8,0-25-11.2-25-25v-50c0-13.8,11.2-25,25-25h150c13.8,0,25,11.2,25,25v50C310,8.8,298.8,20,285,20z"/>
	</g>
</g>
<g class="st0">
	<g class="st1">
		<defs>
			<rect id="SVGID_00000177479604102740449940000011150409858045377947_" x="-46" y="-46" width="512" height="512"/>
		</defs>
		<clipPath id="SVGID_00000122678727842519752070000004115712926996129201_">
			<use xlink:href="#SVGID_00000177479604102740449940000011150409858045377947_"  style="overflow:visible;"/>
		</clipPath>
		<g style="clip-path:url(#SVGID_00000122678727842519752070000004115712926996129201_);">
			<path class="st8" d="M310,502.5H110c-16.5,0-30-13.5-30-30v-70c0-16.5,13.5-30,30-30h200c16.5,0,30,13.5,30,30v70
				C340,489,326.5,502.5,310,502.5z"/>
			<path class="st9" d="M310,352.5H110c-16.5,0-30-13.5-30-30v-70c0-16.5,13.5-30,30-30h200c16.5,0,30,13.5,30,30v70
				C340,339,326.5,352.5,310,352.5z"/>
			<path class="st10" d="M310,202.5H110c-16.5,0-30-13.5-30-30v-70c0-16.5,13.5-30,30-30h200c16.5,0,30,13.5,30,30v70
				C340,189,326.5,202.5,310,202.5z"/>
			<path class="st11" d="M310,52.5H110c-16.5,0-30-13.5-30-30v-70c0-16.5,13.5-30,30-30h200c16.5,0,30,13.5,30,30v70
				C340,39,326.5,52.5,310,52.5z"/>
		</g>
	</g>
</g>
<rect x="-46" y="-46" class="st12" width="512" height="512"/>
<rect x="-46" y="-46" class="st13" width="512" height="512"/>
<path class="st8" d="M256,387.5H96c-13.8,0-25-11.2-25-25v-55c0-13.8,11.2-25,25-25h160c13.8,0,25,11.2,25,25v55
	C281,376.2,269.8,387.5,256,387.5z"/>
<path class="st9" d="M240.8,252.5H111.2c-11.1,0-20.2-9.1-20.2-20.2v-44.5c0-11.1,9.1-20.2,20.2-20.2h129.5
	c11.1,0,20.2,9.1,20.2,20.2v44.5C261,243.4,251.9,252.5,240.8,252.5z"/>
<g>
	<defs>
		<path id="SVGID_00000131334387520751383420000005812946177667902098_" d="M240.8,252.5H111.2c-11.1,0-20.2-9.1-20.2-20.2v-44.5
			c0-11.1,9.1-20.2,20.2-20.2h129.5c11.1,0,20.2,9.1,20.2,20.2v44.5C261,243.4,251.9,252.5,240.8,252.5z"/>
	</defs>
	<clipPath id="SVGID_00000090263241830900073290000006224662750192125845_">
		<use xlink:href="#SVGID_00000131334387520751383420000005812946177667902098_"  style="overflow:visible;"/>
	</clipPath>
	
		<rect x="77" y="154" style="opacity:0.4;clip-path:url(#SVGID_00000090263241830900073290000006224662750192125845_);fill:#FFFFFF;" width="198" height="49"/>
</g>
<path class="st11" d="M256,137.5H96c-13.8,0-25-11.2-25-25v-55c0-13.8,11.2-25,25-25h160c13.8,0,25,11.2,25,25v55
	C281,126.2,269.8,137.5,256,137.5z"/>
<circle class="st15" cx="210" cy="210" r="226"/>
<g>
	<g>
		<path d="M155.7,231.6c-3,0-5.5-0.4-7.6-1.1c-2.1-0.7-3.9-1.6-5.2-2.8c-1.4-1.1-2.4-2.3-3.1-3.7c-0.7-1.3-1-2.6-1.1-3.9
			c0-0.4,0.1-0.7,0.4-0.9c0.2-0.2,0.5-0.4,0.9-0.4h6.6c0.4,0,0.8,0.1,1.1,0.3c0.3,0.2,0.5,0.5,0.8,0.9c0.3,0.9,0.8,1.7,1.6,2.2
			c0.7,0.6,1.6,1,2.5,1.2c1,0.2,2,0.3,3.2,0.3c2.2,0,4-0.5,5.3-1.6c1.3-1,1.9-2.5,1.9-4.4c0-1.9-0.6-3.3-1.8-4.1
			c-1.2-0.8-2.9-1.3-5.1-1.3h-6.4c-0.4,0-0.7-0.1-1-0.4c-0.3-0.3-0.4-0.6-0.4-1v-2.9c0-0.5,0.1-0.9,0.3-1.2c0.2-0.3,0.4-0.6,0.6-0.7
			l10.3-9.5h-16.9c-0.4,0-0.8-0.1-1.1-0.4c-0.3-0.3-0.4-0.6-0.4-1v-4.8c0-0.4,0.1-0.8,0.4-1.1c0.3-0.3,0.6-0.4,1.1-0.4H169
			c0.4,0,0.8,0.1,1.1,0.4c0.3,0.3,0.4,0.6,0.4,1.1v4.3c0,0.4-0.1,0.8-0.2,1.1c-0.2,0.3-0.4,0.5-0.6,0.7l-9.8,9.7l0.6,0.1
			c2.4,0.2,4.5,0.8,6.3,1.7c1.8,0.9,3.3,2.2,4.4,3.9c1.1,1.7,1.6,3.9,1.6,6.5c0,2.7-0.7,5.1-2.2,7c-1.5,2-3.5,3.5-6.1,4.5
			C161.9,231.1,159,231.6,155.7,231.6z"/>
		<path d="M195.3,231.6c-2.9,0-5.4-0.4-7.4-1.2c-2.1-0.8-3.8-2-5.1-3.4c-1.3-1.5-2.3-3.2-3-5.1c-0.7-1.9-1-4-1.2-6.2
			c0-1.1-0.1-2.3-0.1-3.6c0-1.3,0-2.7,0-4c0-1.4,0-2.6,0.1-3.7c0.1-2.2,0.5-4.3,1.2-6.2c0.7-1.9,1.7-3.6,3.1-5
			c1.4-1.4,3.1-2.6,5.1-3.4c2.1-0.8,4.5-1.2,7.3-1.2c2.8,0,5.2,0.4,7.3,1.2c2,0.8,3.7,2,5.1,3.4c1.4,1.4,2.4,3.1,3.1,5
			s1.1,4,1.2,6.2c0,1.1,0.1,2.4,0.1,3.7c0,1.4,0,2.7,0,4c0,1.3-0.1,2.6-0.1,3.6c-0.1,2.2-0.5,4.3-1.2,6.2c-0.7,1.9-1.7,3.6-3,5.1
			c-1.3,1.5-3,2.6-5.1,3.4C200.6,231.2,198.2,231.6,195.3,231.6z M195.3,223.8c2.3,0,4-0.8,5.1-2.3c1.1-1.5,1.7-3.6,1.7-6.2
			c0-1.2,0.1-2.4,0.1-3.6c0-1.2,0-2.5,0-3.7c0-1.2-0.1-2.4-0.1-3.5c-0.1-2.5-0.7-4.5-1.7-6.1s-2.8-2.4-5.1-2.4
			c-2.4,0-4.1,0.8-5.1,2.4c-1.1,1.6-1.6,3.6-1.7,6.1c0,1.1-0.1,2.2-0.1,3.5c0,1.2,0,2.5,0,3.7c0,1.2,0,2.4,0.1,3.6
			c0.1,2.6,0.7,4.7,1.7,6.2C191.3,223,193,223.8,195.3,223.8z"/>
	</g>
</g>
<g>
	<g>
		<line class="st16" x1="336" y1="113.7" x2="336" y2="306.3"/>
		<g>
			<polygon class="st17" points="316.1,119.5 336,85 355.9,119.5 			"/>
		</g>
		<g>
			<polygon class="st17" points="316.1,300.5 336,335 355.9,300.5 			"/>
		</g>
	</g>
</g>
<circle class="st18" cx="336" cy="210" r="20"/>
</svg>
