<?xml version="1.0" encoding="utf-8"?>
<!-- Generator: Adobe Illustrator 26.0.2, SVG Export Plug-In . SVG Version: 6.00 Build 0)  -->
<svg version="1.1" xmlns="http://www.w3.org/2000/svg" xmlns:xlink="http://www.w3.org/1999/xlink" x="0px" y="0px"
	 viewBox="0 0 420 420" style="enable-background:new 0 0 420 420;" xml:space="preserve">
<style type="text/css">
	.st0{display:none;}
	.st1{display:inline;}
	.st2{clip-path:url(#SVGID_00000121277161743913676070000000267536606527562667_);fill:#38BDF8;}
	.st3{clip-path:url(#SVGID_00000077297647253457286970000014627523938075200651_);fill:#3ADD71;}
	.st4{clip-path:url(#SVGID_00000053511300532913332570000006080309388956293011_);fill:#F87171;}
	.st5{clip-path:url(#SVGID_00000075861898130900527830000010976836286198310027_);fill:#BA7DF9;}
	.st6{clip-path:url(#SVGID_00000050646939372544833250000011334655911375184781_);fill:#FBBF24;}
	.st7{clip-path:url(#SVGID_00000081615234323660980870000003976481094926696632_);}
	.st8{fill:#BA7DF9;}
	.st9{fill:#38BDF8;}
	.st10{fill:#3ADD71;}
	.st11{fill:#FBBF24;}
	.st12{fill:none;}
	.st13{fill:#FFFFFF;}
	.st14{display:inline;fill:#BA7DF9;}
	.st15{display:inline;fill:#38BDF8;}
	.st16{display:inline;fill:#FBBF24;}
	.st17{fill:none;stroke:#000000;stroke-width:2;stroke-miterlimit:10;}
	.st18{opacity:0.4;clip-path:url(#SVGID_00000117675981660460472240000001064123035945005471_);fill:#FFFFFF;}
	.st19{fill:none;stroke:#78716C;stroke-width:8;stroke-miterlimit:10;}
	.st20{fill:#78716C;}
	.st21{display:inline;fill:#78716C;stroke:#FFFFFF;stroke-width:8;stroke-miterlimit:10;}
	.st22{opacity:0.4;}
</style>
<g id="Layer_1" class="st0">
	<g>
		<g class="st1">
			<defs>
				<rect id="SVGID_1_" x="-46" y="-46" width="512" height="512"/>
			</defs>
			<clipPath id="SVGID_00000155134513067667800000000007782910582757972660_">
				<use xlink:href="#SVGID_1_"  style="overflow:visible;"/>
			</clipPath>
			<path style="clip-path:url(#SVGID_00000155134513067667800000000007782910582757972660_);fill:#38BDF8;" d="M285,260H135
				c-13.8,0-25-11.2-25-25v-50c0-13.8,11.2-25,25-25h150c13.8,0,25,11.2,25,25v50C310,248.8,298.8,260,285,260z"/>
		</g>
		<g class="st1">
			<defs>
				<rect id="SVGID_00000118384553923842599330000010968160607624462735_" x="-46" y="-46" width="512" height="512"/>
			</defs>
			<clipPath id="SVGID_00000163782809336579435930000011647852638716172429_">
				<use xlink:href="#SVGID_00000118384553923842599330000010968160607624462735_"  style="overflow:visible;"/>
			</clipPath>
			<path style="clip-path:url(#SVGID_00000163782809336579435930000011647852638716172429_);fill:#3ADD71;" d="M285,140H135
				c-13.8,0-25-11.2-25-25V65c0-13.8,11.2-25,25-25h150c13.8,0,25,11.2,25,25v50C310,128.8,298.8,140,285,140z"/>
		</g>
		<g class="st1">
			<defs>
				<rect id="SVGID_00000057140208391182062250000013379690530668618898_" x="-46" y="-46" width="512" height="512"/>
			</defs>
			<clipPath id="SVGID_00000025411973371613783820000009285066478790689690_">
				<use xlink:href="#SVGID_00000057140208391182062250000013379690530668618898_"  style="overflow:visible;"/>
			</clipPath>
			<path style="clip-path:url(#SVGID_00000025411973371613783820000009285066478790689690_);fill:#F87171;" d="M285,500H135
				c-13.8,0-25-11.2-25-25v-50c0-13.8,11.2-25,25-25h150c13.8,0,25,11.2,25,25v50C310,488.8,298.8,500,285,500z"/>
		</g>
		<g class="st1">
			<defs>
				<rect id="SVGID_00000043456923826358811610000002745836452165426592_" x="-46" y="-46" width="512" height="512"/>
			</defs>
			<clipPath id="SVGID_00000101090141592944117280000011809924528626209971_">
				<use xlink:href="#SVGID_00000043456923826358811610000002745836452165426592_"  style="overflow:visible;"/>
			</clipPath>
			<path style="clip-path:url(#SVGID_00000101090141592944117280000011809924528626209971_);fill:#BA7DF9;" d="M285,380H135
				c-13.8,0-25-11.2-25-25v-50c0-13.8,11.2-25,25-25h150c13.8,0,25,11.2,25,25v50C310,368.8,298.8,380,285,380z"/>
		</g>
		<g class="st1">
			<defs>
				<rect id="SVGID_00000093177030524906163780000002623531773775291522_" x="-46" y="-46" width="512" height="512"/>
			</defs>
			<clipPath id="SVGID_00000130609754803689803840000009033797832739997621_">
				<use xlink:href="#SVGID_00000093177030524906163780000002623531773775291522_"  style="overflow:visible;"/>
			</clipPath>
			<path style="clip-path:url(#SVGID_00000130609754803689803840000009033797832739997621_);fill:#FBBF24;" d="M285,20H135
				c-13.8,0-25-11.2-25-25v-50c0-13.8,11.2-25,25-25h150c13.8,0,25,11.2,25,25v50C310,8.8,298.8,20,285,20z"/>
		</g>
	</g>
	<g>
		<g class="st1">
			<defs>
				<rect id="SVGID_00000103968216154130380150000013055818697559945137_" x="-46" y="-46" width="512" height="512"/>
			</defs>
			<clipPath id="SVGID_00000049187090483537243760000005500779770836449694_">
				<use xlink:href="#SVGID_00000103968216154130380150000013055818697559945137_"  style="overflow:visible;"/>
			</clipPath>
			<g style="clip-path:url(#SVGID_00000049187090483537243760000005500779770836449694_);">
				<path class="st8" d="M310,502.5H110c-16.5,0-30-13.5-30-30v-70c0-16.5,13.5-30,30-30h200c16.5,0,30,13.5,30,30v70
					C340,489,326.5,502.5,310,502.5z"/>
				<path class="st9" d="M310,352.5H110c-16.5,0-30-13.5-30-30v-70c0-16.5,13.5-30,30-30h200c16.5,0,30,13.5,30,30v70
					C340,339,326.5,352.5,310,352.5z"/>
				<path class="st10" d="M310,202.5H110c-16.5,0-30-13.5-30-30v-70c0-16.5,13.5-30,30-30h200c16.5,0,30,13.5,30,30v70
					C340,189,326.5,202.5,310,202.5z"/>
				<path class="st11" d="M310,52.5H110c-16.5,0-30-13.5-30-30v-70c0-16.5,13.5-30,30-30h200c16.5,0,30,13.5,30,30v70
					C340,39,326.5,52.5,310,52.5z"/>
			</g>
		</g>
	</g>
	<rect x="-46" y="-46" class="st12" width="512" height="512"/>
	<rect x="-46" y="-46" class="st13" width="512" height="512"/>
	<path class="st14" d="M256,387.5H96c-13.8,0-25-11.2-25-25v-55c0-13.8,11.2-25,25-25h160c13.8,0,25,11.2,25,25v55
		C281,376.2,269.8,387.5,256,387.5z"/>
	<path class="st15" d="M240.8,252.5H111.2c-11.1,0-20.2-9.1-20.2-20.2v-44.5c0-11.1,9.1-20.2,20.2-20.2h129.5
		c11.1,0,20.2,9.1,20.2,20.2v44.5C261,243.4,251.9,252.5,240.8,252.5z"/>
	<path class="st16" d="M256,137.5H96c-13.8,0-25-11.2-25-25v-55c0-13.8,11.2-25,25-25h160c13.8,0,25,11.2,25,25v55
		C281,126.2,269.8,137.5,256,137.5z"/>
	<circle class="st17" cx="210" cy="210" r="226"/>
	<g class="st1">
		<path class="st9" d="M240.8,252.5H111.2c-11.1,0-20.2-9.1-20.2-20.2v-44.5c0-11.1,9.1-20.2,20.2-20.2h129.5
			c11.1,0,20.2,9.1,20.2,20.2v44.5C261,243.4,251.9,252.5,240.8,252.5z"/>
		<g>
			<defs>
				<path id="SVGID_00000060007809973397769240000007659048119015521930_" d="M240.8,252.5H111.2c-11.1,0-20.2-9.1-20.2-20.2v-44.5
					c0-11.1,9.1-20.2,20.2-20.2h129.5c11.1,0,20.2,9.1,20.2,20.2v44.5C261,243.4,251.9,252.5,240.8,252.5z"/>
			</defs>
			<clipPath id="SVGID_00000136405473046297637310000001001643061491135646_">
				<use xlink:href="#SVGID_00000060007809973397769240000007659048119015521930_"  style="overflow:visible;"/>
			</clipPath>
			
				<rect x="77" y="154" style="opacity:0.4;clip-path:url(#SVGID_00000136405473046297637310000001001643061491135646_);fill:#FFFFFF;" width="198" height="49"/>
		</g>
		<g>
			<g>
				<path d="M155.7,231.6c-3,0-5.5-0.4-7.6-1.1c-2.1-0.7-3.9-1.6-5.2-2.8c-1.4-1.1-2.4-2.3-3.1-3.7c-0.7-1.3-1-2.6-1.1-3.9
					c0-0.4,0.1-0.7,0.4-0.9c0.2-0.2,0.5-0.4,0.9-0.4h6.6c0.4,0,0.8,0.1,1.1,0.3c0.3,0.2,0.5,0.5,0.8,0.9c0.3,0.9,0.8,1.7,1.6,2.2
					c0.7,0.6,1.6,1,2.5,1.2c1,0.2,2,0.3,3.2,0.3c2.2,0,4-0.5,5.3-1.6c1.3-1,1.9-2.5,1.9-4.4c0-1.9-0.6-3.3-1.8-4.1
					c-1.2-0.8-2.9-1.3-5.1-1.3h-6.4c-0.4,0-0.7-0.1-1-0.4c-0.3-0.3-0.4-0.6-0.4-1v-2.9c0-0.5,0.1-0.9,0.3-1.2
					c0.2-0.3,0.4-0.6,0.6-0.7l10.3-9.5h-16.9c-0.4,0-0.8-0.1-1.1-0.4c-0.3-0.3-0.4-0.6-0.4-1v-4.8c0-0.4,0.1-0.8,0.4-1.1
					c0.3-0.3,0.6-0.4,1.1-0.4H169c0.4,0,0.8,0.1,1.1,0.4c0.3,0.3,0.4,0.6,0.4,1.1v4.3c0,0.4-0.1,0.8-0.2,1.1
					c-0.2,0.3-0.4,0.5-0.6,0.7l-9.8,9.7l0.6,0.1c2.4,0.2,4.5,0.8,6.3,1.7c1.8,0.9,3.3,2.2,4.4,3.9c1.1,1.7,1.6,3.9,1.6,6.5
					c0,2.7-0.7,5.1-2.2,7c-1.5,2-3.5,3.5-6.1,4.5C161.9,231.1,159,231.6,155.7,231.6z"/>
				<path d="M195.3,231.6c-2.9,0-5.4-0.4-7.4-1.2c-2.1-0.8-3.8-2-5.1-3.4c-1.3-1.5-2.3-3.2-3-5.1c-0.7-1.9-1-4-1.2-6.2
					c0-1.1-0.1-2.3-0.1-3.6c0-1.3,0-2.7,0-4c0-1.4,0-2.6,0.1-3.7c0.1-2.2,0.5-4.3,1.2-6.2c0.7-1.9,1.7-3.6,3.1-5
					c1.4-1.4,3.1-2.6,5.1-3.4c2.1-0.8,4.5-1.2,7.3-1.2c2.8,0,5.2,0.4,7.3,1.2c2,0.8,3.7,2,5.1,3.4c1.4,1.4,2.4,3.1,3.1,5
					s1.1,4,1.2,6.2c0,1.1,0.1,2.4,0.1,3.7c0,1.4,0,2.7,0,4c0,1.3-0.1,2.6-0.1,3.6c-0.1,2.2-0.5,4.3-1.2,6.2c-0.7,1.9-1.7,3.6-3,5.1
					c-1.3,1.5-3,2.6-5.1,3.4C200.6,231.2,198.2,231.6,195.3,231.6z M195.3,223.8c2.3,0,4-0.8,5.1-2.3c1.1-1.5,1.7-3.6,1.7-6.2
					c0-1.2,0.1-2.4,0.1-3.6c0-1.2,0-2.5,0-3.7c0-1.2-0.1-2.4-0.1-3.5c-0.1-2.5-0.7-4.5-1.7-6.1s-2.8-2.4-5.1-2.4
					c-2.4,0-4.1,0.8-5.1,2.4c-1.1,1.6-1.6,3.6-1.7,6.1c0,1.1-0.1,2.2-0.1,3.5c0,1.2,0,2.5,0,3.7c0,1.2,0,2.4,0.1,3.6
					c0.1,2.6,0.7,4.7,1.7,6.2C191.3,223,193,223.8,195.3,223.8z"/>
			</g>
		</g>
	</g>
	<g class="st1">
		<g>
			<line class="st19" x1="336" y1="113.7" x2="336" y2="306.3"/>
			<g>
				<polygon class="st20" points="316.1,119.5 336,85 355.9,119.5 				"/>
			</g>
			<g>
				<polygon class="st20" points="316.1,300.5 336,335 355.9,300.5 				"/>
			</g>
		</g>
	</g>
	<circle class="st21" cx="336" cy="210" r="20"/>
</g>
<g id="Layer_2">
	<g>
		<path class="st10" d="M290,387.5H130c-13.8,0-25-11.2-25-25v-55c0-13.8,11.2-25,25-25h160c13.8,0,25,11.2,25,25v55
			C315,376.2,303.8,387.5,290,387.5z"/>
		<path class="st10" d="M290,262.5H130c-13.8,0-25-11.2-25-25v-55c0-13.8,11.2-25,25-25h160c13.8,0,25,11.2,25,25v55
			C315,251.2,303.8,262.5,290,262.5z"/>
		<path class="st10" d="M290,137.5H130c-13.8,0-25-11.2-25-25v-55c0-13.8,11.2-25,25-25h160c13.8,0,25,11.2,25,25v55
			C315,126.2,303.8,137.5,290,137.5z"/>
	</g>
	<g>
		<g class="st22">
			<path d="M153.6,225.5c-0.3,0-0.6-0.1-0.8-0.3c-0.2-0.2-0.3-0.4-0.3-0.8v-27.3c0-0.3,0.1-0.6,0.3-0.8c0.2-0.2,0.4-0.3,0.8-0.3
				h11.5c2.3,0,4.2,0.4,5.9,1c1.7,0.7,3,1.8,3.9,3.2c0.9,1.4,1.4,3.2,1.4,5.3c0,2.1-0.5,3.9-1.4,5.3c-0.9,1.4-2.2,2.4-3.9,3.1
				c-1.7,0.7-3.6,1-5.9,1h-5.6v9.5c0,0.3-0.1,0.6-0.3,0.8c-0.2,0.2-0.4,0.3-0.8,0.3H153.6z M159.3,209.8h5.5c1.4,0,2.5-0.3,3.3-1
				c0.8-0.7,1.2-1.8,1.2-3.2c0-1.2-0.4-2.2-1.1-3c-0.7-0.8-1.9-1.2-3.5-1.2h-5.5V209.8z"/>
			<path d="M192.6,226c-2.5,0-4.6-0.4-6.5-1.2c-1.8-0.8-3.3-2.1-4.3-3.8c-1-1.7-1.5-3.9-1.5-6.6v-17.1c0-0.3,0.1-0.6,0.3-0.8
				c0.2-0.2,0.4-0.3,0.8-0.3h4.6c0.3,0,0.6,0.1,0.8,0.3c0.2,0.2,0.3,0.4,0.3,0.8v17.1c0,2.1,0.5,3.6,1.5,4.6c1,1,2.4,1.5,4.1,1.5
				c1.7,0,3.1-0.5,4.1-1.5c1-1,1.5-2.5,1.5-4.6v-17.1c0-0.3,0.1-0.6,0.3-0.8c0.2-0.2,0.5-0.3,0.7-0.3h4.6c0.3,0,0.5,0.1,0.7,0.3
				c0.2,0.2,0.3,0.4,0.3,0.8v17.1c0,2.7-0.5,4.9-1.5,6.6c-1,1.7-2.4,3-4.2,3.8C197.2,225.6,195.1,226,192.6,226z"/>
			<path d="M211.8,225.5c-0.3,0-0.6-0.1-0.8-0.3c-0.2-0.2-0.3-0.4-0.3-0.8v-27.3c0-0.3,0.1-0.6,0.3-0.8c0.2-0.2,0.4-0.3,0.8-0.3
				h18.7c0.3,0,0.6,0.1,0.8,0.3c0.2,0.2,0.3,0.4,0.3,0.8v3.6c0,0.3-0.1,0.6-0.3,0.8c-0.2,0.2-0.4,0.3-0.8,0.3h-13.2v7.1h12.4
				c0.3,0,0.6,0.1,0.8,0.3c0.2,0.2,0.3,0.4,0.3,0.8v3.6c0,0.3-0.1,0.5-0.3,0.7c-0.2,0.2-0.4,0.3-0.8,0.3h-12.4v10
				c0,0.3-0.1,0.6-0.3,0.8c-0.2,0.2-0.4,0.3-0.8,0.3H211.8z"/>
			<path d="M237.4,225.5c-0.3,0-0.6-0.1-0.8-0.3s-0.3-0.4-0.3-0.8v-27.3c0-0.3,0.1-0.6,0.3-0.8c0.2-0.2,0.4-0.3,0.8-0.3h18.7
				c0.3,0,0.6,0.1,0.8,0.3c0.2,0.2,0.3,0.4,0.3,0.8v3.6c0,0.3-0.1,0.6-0.3,0.8c-0.2,0.2-0.4,0.3-0.8,0.3h-13.2v7.1h12.4
				c0.3,0,0.6,0.1,0.8,0.3c0.2,0.2,0.3,0.4,0.3,0.8v3.6c0,0.3-0.1,0.5-0.3,0.7c-0.2,0.2-0.4,0.3-0.8,0.3h-12.4v10
				c0,0.3-0.1,0.6-0.3,0.8c-0.2,0.2-0.4,0.3-0.8,0.3H237.4z"/>
			<path d="M262.4,225.5c-0.3,0-0.5-0.1-0.7-0.3c-0.2-0.2-0.3-0.4-0.3-0.8V220c0-0.3,0.1-0.6,0.3-0.8c0.2-0.2,0.4-0.3,0.7-0.3h4.5
				c0.3,0,0.6,0.1,0.8,0.3c0.2,0.2,0.3,0.4,0.3,0.8v4.5c0,0.3-0.1,0.6-0.3,0.8c-0.2,0.2-0.4,0.3-0.8,0.3H262.4z M262.6,216.9
				c-0.3,0-0.6-0.1-0.8-0.3c-0.2-0.2-0.3-0.4-0.3-0.8v-18.6c0-0.3,0.1-0.6,0.3-0.8c0.2-0.2,0.4-0.3,0.8-0.3h4.1
				c0.3,0,0.6,0.1,0.8,0.3c0.2,0.2,0.3,0.4,0.3,0.8v18.6c0,0.3-0.1,0.6-0.3,0.8c-0.2,0.2-0.4,0.3-0.8,0.3H262.6z"/>
		</g>
	</g>
	<g>
		<g class="st22">
			<path d="M153.6,350.5c-0.3,0-0.6-0.1-0.8-0.3c-0.2-0.2-0.3-0.4-0.3-0.8v-27.3c0-0.3,0.1-0.6,0.3-0.8c0.2-0.2,0.4-0.3,0.8-0.3
				h11.5c2.3,0,4.2,0.4,5.9,1c1.7,0.7,3,1.8,3.9,3.2c0.9,1.4,1.4,3.2,1.4,5.3c0,2.1-0.5,3.9-1.4,5.3c-0.9,1.4-2.2,2.4-3.9,3.1
				c-1.7,0.7-3.6,1-5.9,1h-5.6v9.5c0,0.3-0.1,0.6-0.3,0.8c-0.2,0.2-0.4,0.3-0.8,0.3H153.6z M159.3,334.8h5.5c1.4,0,2.5-0.3,3.3-1
				s1.2-1.8,1.2-3.2c0-1.2-0.4-2.2-1.1-3c-0.7-0.8-1.9-1.2-3.5-1.2h-5.5V334.8z"/>
			<path d="M192.6,351c-2.5,0-4.6-0.4-6.5-1.2c-1.8-0.8-3.3-2.1-4.3-3.8c-1-1.7-1.5-3.9-1.5-6.6v-17.1c0-0.3,0.1-0.6,0.3-0.8
				c0.2-0.2,0.4-0.3,0.8-0.3h4.6c0.3,0,0.6,0.1,0.8,0.3c0.2,0.2,0.3,0.4,0.3,0.8v17.1c0,2.1,0.5,3.6,1.5,4.6c1,1,2.4,1.5,4.1,1.5
				c1.7,0,3.1-0.5,4.1-1.5c1-1,1.5-2.5,1.5-4.6v-17.1c0-0.3,0.1-0.6,0.3-0.8c0.2-0.2,0.5-0.3,0.7-0.3h4.6c0.3,0,0.5,0.1,0.7,0.3
				c0.2,0.2,0.3,0.4,0.3,0.8v17.1c0,2.7-0.5,4.9-1.5,6.6c-1,1.7-2.4,3-4.2,3.8C197.2,350.6,195.1,351,192.6,351z"/>
			<path d="M211.8,350.5c-0.3,0-0.6-0.1-0.8-0.3c-0.2-0.2-0.3-0.4-0.3-0.8v-27.3c0-0.3,0.1-0.6,0.3-0.8c0.2-0.2,0.4-0.3,0.8-0.3
				h18.7c0.3,0,0.6,0.1,0.8,0.3c0.2,0.2,0.3,0.4,0.3,0.8v3.6c0,0.3-0.1,0.6-0.3,0.8c-0.2,0.2-0.4,0.3-0.8,0.3h-13.2v7.1h12.4
				c0.3,0,0.6,0.1,0.8,0.3c0.2,0.2,0.3,0.4,0.3,0.8v3.6c0,0.3-0.1,0.5-0.3,0.7c-0.2,0.2-0.4,0.3-0.8,0.3h-12.4v10
				c0,0.3-0.1,0.6-0.3,0.8c-0.2,0.2-0.4,0.3-0.8,0.3H211.8z"/>
			<path d="M237.4,350.5c-0.3,0-0.6-0.1-0.8-0.3s-0.3-0.4-0.3-0.8v-27.3c0-0.3,0.1-0.6,0.3-0.8c0.2-0.2,0.4-0.3,0.8-0.3h18.7
				c0.3,0,0.6,0.1,0.8,0.3c0.2,0.2,0.3,0.4,0.3,0.8v3.6c0,0.3-0.1,0.6-0.3,0.8c-0.2,0.2-0.4,0.3-0.8,0.3h-13.2v7.1h12.4
				c0.3,0,0.6,0.1,0.8,0.3c0.2,0.2,0.3,0.4,0.3,0.8v3.6c0,0.3-0.1,0.5-0.3,0.7c-0.2,0.2-0.4,0.3-0.8,0.3h-12.4v10
				c0,0.3-0.1,0.6-0.3,0.8c-0.2,0.2-0.4,0.3-0.8,0.3H237.4z"/>
			<path d="M262.4,350.5c-0.3,0-0.5-0.1-0.7-0.3c-0.2-0.2-0.3-0.4-0.3-0.8V345c0-0.3,0.1-0.6,0.3-0.8c0.2-0.2,0.4-0.3,0.7-0.3h4.5
				c0.3,0,0.6,0.1,0.8,0.3c0.2,0.2,0.3,0.4,0.3,0.8v4.5c0,0.3-0.1,0.6-0.3,0.8c-0.2,0.2-0.4,0.3-0.8,0.3H262.4z M262.6,341.9
				c-0.3,0-0.6-0.1-0.8-0.3c-0.2-0.2-0.3-0.4-0.3-0.8v-18.6c0-0.3,0.1-0.6,0.3-0.8c0.2-0.2,0.4-0.3,0.8-0.3h4.1
				c0.3,0,0.6,0.1,0.8,0.3c0.2,0.2,0.3,0.4,0.3,0.8v18.6c0,0.3-0.1,0.6-0.3,0.8c-0.2,0.2-0.4,0.3-0.8,0.3H262.6z"/>
		</g>
	</g>
	<g>
		<g class="st22">
			<path d="M153.6,100.5c-0.3,0-0.6-0.1-0.8-0.3c-0.2-0.2-0.3-0.4-0.3-0.8V72.2c0-0.3,0.1-0.6,0.3-0.8c0.2-0.2,0.4-0.3,0.8-0.3h11.5
				c2.3,0,4.2,0.4,5.9,1c1.7,0.7,3,1.8,3.9,3.2c0.9,1.4,1.4,3.2,1.4,5.3c0,2.1-0.5,3.9-1.4,5.3c-0.9,1.4-2.2,2.4-3.9,3.1
				c-1.7,0.7-3.6,1-5.9,1h-5.6v9.5c0,0.3-0.1,0.6-0.3,0.8c-0.2,0.2-0.4,0.3-0.8,0.3H153.6z M159.3,84.8h5.5c1.4,0,2.5-0.3,3.3-1
				c0.8-0.7,1.2-1.8,1.2-3.2c0-1.2-0.4-2.2-1.1-3c-0.7-0.8-1.9-1.2-3.5-1.2h-5.5V84.8z"/>
			<path d="M192.6,101c-2.5,0-4.6-0.4-6.5-1.2c-1.8-0.8-3.3-2.1-4.3-3.8c-1-1.7-1.5-3.9-1.5-6.6V72.2c0-0.3,0.1-0.6,0.3-0.8
				c0.2-0.2,0.4-0.3,0.8-0.3h4.6c0.3,0,0.6,0.1,0.8,0.3c0.2,0.2,0.3,0.4,0.3,0.8v17.1c0,2.1,0.5,3.6,1.5,4.6c1,1,2.4,1.5,4.1,1.5
				c1.7,0,3.1-0.5,4.1-1.5c1-1,1.5-2.5,1.5-4.6V72.2c0-0.3,0.1-0.6,0.3-0.8c0.2-0.2,0.5-0.3,0.7-0.3h4.6c0.3,0,0.5,0.1,0.7,0.3
				c0.2,0.2,0.3,0.4,0.3,0.8v17.1c0,2.7-0.5,4.9-1.5,6.6c-1,1.7-2.4,3-4.2,3.8C197.2,100.6,195.1,101,192.6,101z"/>
			<path d="M211.8,100.5c-0.3,0-0.6-0.1-0.8-0.3c-0.2-0.2-0.3-0.4-0.3-0.8V72.2c0-0.3,0.1-0.6,0.3-0.8c0.2-0.2,0.4-0.3,0.8-0.3h18.7
				c0.3,0,0.6,0.1,0.8,0.3c0.2,0.2,0.3,0.4,0.3,0.8v3.6c0,0.3-0.1,0.6-0.3,0.8c-0.2,0.2-0.4,0.3-0.8,0.3h-13.2v7.1h12.4
				c0.3,0,0.6,0.1,0.8,0.3c0.2,0.2,0.3,0.4,0.3,0.8v3.6c0,0.3-0.1,0.5-0.3,0.7c-0.2,0.2-0.4,0.3-0.8,0.3h-12.4v10
				c0,0.3-0.1,0.6-0.3,0.8c-0.2,0.2-0.4,0.3-0.8,0.3H211.8z"/>
			<path d="M237.4,100.5c-0.3,0-0.6-0.1-0.8-0.3c-0.2-0.2-0.3-0.4-0.3-0.8V72.2c0-0.3,0.1-0.6,0.3-0.8c0.2-0.2,0.4-0.3,0.8-0.3h18.7
				c0.3,0,0.6,0.1,0.8,0.3c0.2,0.2,0.3,0.4,0.3,0.8v3.6c0,0.3-0.1,0.6-0.3,0.8c-0.2,0.2-0.4,0.3-0.8,0.3h-13.2v7.1h12.4
				c0.3,0,0.6,0.1,0.8,0.3c0.2,0.2,0.3,0.4,0.3,0.8v3.6c0,0.3-0.1,0.5-0.3,0.7c-0.2,0.2-0.4,0.3-0.8,0.3h-12.4v10
				c0,0.3-0.1,0.6-0.3,0.8c-0.2,0.2-0.4,0.3-0.8,0.3H237.4z"/>
			<path d="M262.4,100.5c-0.3,0-0.5-0.1-0.7-0.3c-0.2-0.2-0.3-0.4-0.3-0.8V95c0-0.3,0.1-0.6,0.3-0.8c0.2-0.2,0.4-0.3,0.7-0.3h4.5
				c0.3,0,0.6,0.1,0.8,0.3c0.2,0.2,0.3,0.4,0.3,0.8v4.5c0,0.3-0.1,0.6-0.3,0.8c-0.2,0.2-0.4,0.3-0.8,0.3H262.4z M262.6,91.9
				c-0.3,0-0.6-0.1-0.8-0.3c-0.2-0.2-0.3-0.4-0.3-0.8V72.2c0-0.3,0.1-0.6,0.3-0.8c0.2-0.2,0.4-0.3,0.8-0.3h4.1
				c0.3,0,0.6,0.1,0.8,0.3c0.2,0.2,0.3,0.4,0.3,0.8v18.6c0,0.3-0.1,0.6-0.3,0.8c-0.2,0.2-0.4,0.3-0.8,0.3H262.6z"/>
		</g>
	</g>
</g>
</svg>
